<svg width="1024" height="1024" viewBox="0 0 1024 1024" fill="none" xmlns="http://www.w3.org/2000/svg">
<path fill-rule="evenodd" clip-rule="evenodd" d="M520.748 82.4804C532.518 76.6055 551.91 69.9627 563.836 67.7186C588.804 63.0181 611.183 64.3029 645.912 72.4339C686.857 82.0173 707.088 93.5908 739.57 126.013C771.395 157.775 783.387 177.97 792.397 214.955C797.314 235.15 798.506 237.071 811.08 245.08C837.767 262.074 863.958 294.577 878.647 328.924C895.872 369.206 898.872 412.395 887.495 456.31L879.764 486.154L890.047 507.11C909.937 547.661 914.349 600.448 902.444 655.483C893.031 699.01 868.295 742.677 841.289 763.436C834.385 768.746 828.004 776.453 827.108 780.568C817.336 825.43 792.618 873.771 765.857 900.361C733.826 932.186 682.364 953.889 639.292 953.74C601.591 953.608 554.715 938.795 524.802 917.564L514.875 910.518L501.945 922.91C473.598 950.076 431.293 963.248 389.923 957.783C334.055 950.405 284.641 911.032 264.141 857.557C258.617 843.148 256.639 841.146 240.436 833.558C221.962 824.904 198.442 803.428 183.176 781.273C164.848 754.672 156.364 714.471 162.664 684.104L166.225 666.946L153.741 652.79C127.407 622.929 115 586.49 115 538.998C115 503.533 123.215 473.116 140.548 444.399L151.369 426.47L146.463 408.746C135.049 367.491 138.547 329.937 157.385 291.431C169.888 265.878 201.414 233.465 230.105 216.659C250.602 204.655 251.31 203.836 259.639 182.437C274.456 144.367 295.781 117.993 329.727 95.7662C381.487 61.8675 441.381 57.4808 485.096 84.3869L499.346 93.1575L520.748 82.4804ZM457.737 114.748C464.68 117.987 473.756 124.672 477.903 129.602L485.44 138.561V289.336V440.111L438.388 462.325C412.511 474.541 383.497 488.506 373.917 493.352C357.536 501.636 355.893 501.911 346.378 497.933C311.45 483.336 273.306 508.93 273.345 546.941C273.366 569.445 296.011 592.216 320.731 594.591C349.677 597.373 374.636 574.776 377.236 543.436L378.532 527.786L430.146 503.276C458.535 489.794 482.59 478.764 483.6 478.764C484.612 478.764 485.44 515.761 485.44 560.982V643.201L440.312 665.49C396.197 687.284 394.799 687.744 378.021 685.99C355.837 683.671 341.153 688.581 331.184 701.651C314.237 723.878 320.836 751.403 345.841 762.755C374.986 775.99 397.801 764.288 409.081 730.32C413.742 716.279 413.793 716.243 447.031 701.355C465.334 693.156 481.466 685.999 482.877 685.452C484.287 684.902 485.44 728.07 485.44 781.381C485.44 877.294 485.368 878.412 478.634 888.405C456.441 921.35 383.853 927.894 345.874 900.373C331.642 890.06 308.337 858.433 303.844 843.33C302.132 837.578 299.596 828.894 298.209 824.032C296.121 816.726 291.261 813.032 270.119 802.702C240.615 788.283 223.685 771.481 210.197 743.224C199.433 720.668 198.43 692.926 207.61 671.506C216.291 651.245 215.446 644.755 203.129 637.141C168.944 616.008 148.958 565.85 156.486 520.076C165.404 465.87 190.674 438.315 246.446 421.984C258.769 418.374 285.283 408.764 305.364 400.624C334.964 388.626 343.872 386.2 352.416 387.805C376.014 392.233 398.712 379.856 410.931 355.902C432.778 313.063 385.857 269.506 340.203 290.244C317.269 300.661 305.331 325.386 311.844 348.975C314.243 357.671 314.123 361.045 311.351 362.862C307.031 365.689 251.534 383.11 219.56 391.671C207.237 394.973 194.884 398.55 192.108 399.62C184.837 402.429 179.684 380.95 181.494 355.367C184.55 312.193 217.412 267.172 262.626 244.216C275.191 237.836 286.875 230.925 288.59 228.86C290.305 226.792 293.683 216.638 296.094 206.296C301.738 182.1 310.667 167.126 330.82 148.061C350.032 129.883 377.791 115.139 403.02 109.712C424.344 105.125 440.252 106.59 457.737 114.748ZM644.484 114.129C706.906 134.201 744.996 176.246 752.569 233.435L755.968 259.128L776.797 271.012C847.999 311.64 869.069 380.077 839.84 475.776C835.801 489.002 835.924 489.602 847.336 512.388C862.123 541.909 867.731 565.943 867.784 600.057C867.874 654.867 850.983 696.425 813.85 732.765C791.504 754.633 790.828 755.724 786.004 777.717C770.245 849.582 718.533 902.512 655.976 910.814L640.785 912.831V841.298C640.785 788.636 641.771 768.492 644.52 764.942C646.575 762.289 655.283 756.034 663.872 751.041L679.49 741.963L692.253 747.757C719.653 760.197 747.914 750.255 762.042 723.202C768.877 710.117 767.422 688.055 758.899 675.507C750.531 663.192 730.151 652.082 715.925 652.082C704.824 652.082 686.857 658.982 678.666 666.39C669.841 674.372 661.697 692.615 661.697 704.397C661.697 713.294 660.126 715.977 652.436 720.205C634.15 730.255 619.575 742.076 613.812 751.531C608.402 760.409 607.945 766.888 607.936 835.169L607.924 909.185L599.708 907.398C582.414 903.636 548.63 884.897 538.081 873.218L527.264 861.242L527.299 724.538L527.335 587.835L606.822 547.768C682.576 509.585 686.759 507.866 695.873 511.162C720.806 520.181 744.598 511.545 754.415 489.907C761.644 473.977 761.63 471.484 754.218 456.17C740.646 428.122 704.806 422.988 681.982 445.818C674.191 453.612 670.645 459.815 670.615 465.711C670.588 470.427 669.581 475.722 668.374 477.482C663.929 483.963 607.652 511.419 606.329 507.753C597.522 483.369 584.084 424.706 585.506 416.85C586.698 410.273 596.219 397.292 615.607 375.816C631.205 358.535 646.524 343.032 649.649 341.358C652.774 339.685 661.715 338.316 669.521 338.316C697.484 338.316 719.877 320.892 724.726 295.36C729.321 271.167 718.07 251.454 693.908 241.357C671.867 232.147 646.925 238.584 632.725 257.15C625.161 267.038 624.337 270.48 624.163 292.844L623.975 317.593L607.524 334.68C562.345 381.595 551.345 398.485 551.229 421.112C551.193 428.026 556.018 452.231 561.953 474.9C567.886 497.569 573.356 518.806 574.103 522.093C575.23 527.027 571.459 530.051 552.51 539.425C539.882 545.671 529.199 550.377 528.766 549.884C528.333 549.391 527.01 454.18 525.827 338.304C523.753 135.498 523.879 127.436 529.208 122.613C541.11 111.84 563.408 106.082 595.192 105.577C611.679 105.314 623.384 107.346 644.484 114.129Z" fill="currentColor"/>
</svg>
